<mxfile host="app.diagrams.net" modified="2023-02-13T07:09:07.566Z" agent="5.0 (X11)" etag="FCQAh-8VEzN3AZAUiert" version="20.8.18" type="github">
  <diagram name="Page-1" id="WuMOMcC_OrHmZ7NTqtNj">
    <mxGraphModel dx="1144" dy="647" grid="1" gridSize="10" guides="1" tooltips="1" connect="1" arrows="1" fold="1" page="1" pageScale="1" pageWidth="850" pageHeight="1100" math="0" shadow="0">
      <root>
        <mxCell id="0" />
        <mxCell id="1" parent="0" />
        <mxCell id="g4ER7JsRYTbWkp-c43Al-1" value="Admin" style="swimlane;horizontal=0;whiteSpace=wrap;html=1;startSize=23;" vertex="1" parent="1">
          <mxGeometry x="40" y="100" width="910" height="160" as="geometry" />
        </mxCell>
        <mxCell id="g4ER7JsRYTbWkp-c43Al-2" value="Choose Add new User" style="shape=ellipse;html=1;fillColor=strokeColor;strokeWidth=2;verticalLabelPosition=bottom;verticalAlignment=top;perimeter=ellipsePerimeter;" vertex="1" parent="g4ER7JsRYTbWkp-c43Al-1">
          <mxGeometry x="180" y="20" width="40" height="40" as="geometry" />
        </mxCell>
        <mxCell id="g4ER7JsRYTbWkp-c43Al-3" value="" style="ellipse;html=1;shape=endState;fillColor=#000000;strokeColor=#ff0000;strokeWidth=2;fontFamily=Helvetica;fontSize=12;fontColor=default;" vertex="1" parent="g4ER7JsRYTbWkp-c43Al-1">
          <mxGeometry x="860" y="50" width="30" height="30" as="geometry" />
        </mxCell>
        <mxCell id="g4ER7JsRYTbWkp-c43Al-4" value="Give new Account information" style="rounded=1;whiteSpace=wrap;html=1;strokeWidth=2;fontFamily=Helvetica;fontSize=12;" vertex="1" parent="g4ER7JsRYTbWkp-c43Al-1">
          <mxGeometry x="385" y="20" width="120" height="60" as="geometry" />
        </mxCell>
        <mxCell id="g4ER7JsRYTbWkp-c43Al-5" value="AccountManagementController" style="swimlane;horizontal=0;whiteSpace=wrap;html=1;" vertex="1" parent="1">
          <mxGeometry x="40" y="270" width="910" height="160" as="geometry" />
        </mxCell>
        <mxCell id="g4ER7JsRYTbWkp-c43Al-6" style="edgeStyle=orthogonalEdgeStyle;rounded=0;orthogonalLoop=1;jettySize=auto;html=1;dashed=1;" edge="1" parent="g4ER7JsRYTbWkp-c43Al-5" source="g4ER7JsRYTbWkp-c43Al-7" target="g4ER7JsRYTbWkp-c43Al-9">
          <mxGeometry relative="1" as="geometry" />
        </mxCell>
        <mxCell id="g4ER7JsRYTbWkp-c43Al-7" value="Prompt  Add User success" style="rounded=1;whiteSpace=wrap;html=1;strokeWidth=2;fontFamily=Helvetica;fontSize=12;" vertex="1" parent="g4ER7JsRYTbWkp-c43Al-5">
          <mxGeometry x="560" y="40" width="120" height="60" as="geometry" />
        </mxCell>
        <mxCell id="g4ER7JsRYTbWkp-c43Al-8" value="Display create Account form" style="rounded=1;whiteSpace=wrap;html=1;strokeWidth=2;fontFamily=Helvetica;fontSize=12;" vertex="1" parent="g4ER7JsRYTbWkp-c43Al-5">
          <mxGeometry x="50" y="20" width="120" height="60" as="geometry" />
        </mxCell>
        <mxCell id="g4ER7JsRYTbWkp-c43Al-9" value="Renew Account List" style="rounded=1;whiteSpace=wrap;html=1;strokeWidth=2;fontFamily=Helvetica;fontSize=12;" vertex="1" parent="g4ER7JsRYTbWkp-c43Al-5">
          <mxGeometry x="760" y="40" width="120" height="60" as="geometry" />
        </mxCell>
        <mxCell id="g4ER7JsRYTbWkp-c43Al-10" value="UserController" style="swimlane;horizontal=0;whiteSpace=wrap;html=1;" vertex="1" parent="1">
          <mxGeometry x="40" y="440" width="910" height="200" as="geometry" />
        </mxCell>
        <mxCell id="g4ER7JsRYTbWkp-c43Al-11" value="Add new Account to DB" style="rounded=1;whiteSpace=wrap;html=1;strokeWidth=2;fontFamily=Helvetica;fontSize=12;" vertex="1" parent="g4ER7JsRYTbWkp-c43Al-10">
          <mxGeometry x="230" y="30" width="120" height="60" as="geometry" />
        </mxCell>
        <mxCell id="g4ER7JsRYTbWkp-c43Al-14" style="edgeStyle=orthogonalEdgeStyle;rounded=0;orthogonalLoop=1;jettySize=auto;html=1;entryX=0.5;entryY=0;entryDx=0;entryDy=0;dashed=1;strokeWidth=1;fontFamily=Helvetica;fontSize=12;fontColor=default;" edge="1" parent="1" source="g4ER7JsRYTbWkp-c43Al-2" target="g4ER7JsRYTbWkp-c43Al-8">
          <mxGeometry relative="1" as="geometry" />
        </mxCell>
        <mxCell id="g4ER7JsRYTbWkp-c43Al-15" value="Add new Account" style="text;html=1;strokeColor=none;fillColor=none;align=center;verticalAlign=middle;whiteSpace=wrap;rounded=0;fontSize=19;" vertex="1" parent="1">
          <mxGeometry x="400" y="40" width="290" height="30" as="geometry" />
        </mxCell>
        <mxCell id="g4ER7JsRYTbWkp-c43Al-16" style="edgeStyle=orthogonalEdgeStyle;rounded=0;orthogonalLoop=1;jettySize=auto;html=1;entryX=0;entryY=0.5;entryDx=0;entryDy=0;dashed=1;" edge="1" parent="1" source="g4ER7JsRYTbWkp-c43Al-8" target="g4ER7JsRYTbWkp-c43Al-4">
          <mxGeometry relative="1" as="geometry">
            <mxPoint x="280" y="320" as="targetPoint" />
          </mxGeometry>
        </mxCell>
        <mxCell id="g4ER7JsRYTbWkp-c43Al-17" style="edgeStyle=orthogonalEdgeStyle;rounded=0;orthogonalLoop=1;jettySize=auto;html=1;dashed=1;entryX=0.5;entryY=0;entryDx=0;entryDy=0;" edge="1" parent="1" source="g4ER7JsRYTbWkp-c43Al-4" target="g4ER7JsRYTbWkp-c43Al-11">
          <mxGeometry relative="1" as="geometry">
            <Array as="points">
              <mxPoint x="485" y="330" />
              <mxPoint x="330" y="330" />
            </Array>
          </mxGeometry>
        </mxCell>
        <mxCell id="g4ER7JsRYTbWkp-c43Al-26" style="edgeStyle=orthogonalEdgeStyle;rounded=0;orthogonalLoop=1;jettySize=auto;html=1;entryX=0.5;entryY=1;entryDx=0;entryDy=0;dashed=1;" edge="1" parent="1" source="g4ER7JsRYTbWkp-c43Al-9" target="g4ER7JsRYTbWkp-c43Al-3">
          <mxGeometry relative="1" as="geometry" />
        </mxCell>
        <mxCell id="g4ER7JsRYTbWkp-c43Al-13" style="edgeStyle=orthogonalEdgeStyle;rounded=0;orthogonalLoop=1;jettySize=auto;html=1;entryX=0;entryY=0.5;entryDx=0;entryDy=0;dashed=1;" edge="1" parent="1" source="g4ER7JsRYTbWkp-c43Al-11" target="g4ER7JsRYTbWkp-c43Al-7">
          <mxGeometry relative="1" as="geometry">
            <mxPoint x="490" y="500" as="targetPoint" />
          </mxGeometry>
        </mxCell>
      </root>
    </mxGraphModel>
  </diagram>
</mxfile>
